<svg width="708" height="289" viewBox="0 0 708 289" fill="none" xmlns="http://www.w3.org/2000/svg">
<path d="M200.3 63.5L239.8 99.4H186.6C178.3 99.4 171.6 92.7 171.6 84.4V37.4C171.6 33.3 173.3 29.5 176 26.8C178.7 24.1 182.5 22.4 186.6 22.4H273.1V0.799988H186.6C181.7 0.799988 176.9 1.80001 172.3 3.70001C167.9 5.50001 164 8.2 160.7 11.5C157.3 14.9 154.7 18.8 152.9 23.1C151 27.6 150 32.4 150 37.4V84.4C150 89.3 151 94.1 152.9 98.7C154.7 103.1 157.4 107 160.7 110.3C164.1 113.7 168 116.3 172.3 118.1C176.8 120 181.6 121 186.6 121H296.2L232.6 63.5H200.3Z" fill="#E3E3E3"/>
<path d="M147.5 24.8H125.9V121H147.5V24.8Z" fill="#E3E3E3"/>
<path d="M147.4 0.600006H125.8V22.4H147.4V0.600006Z" fill="#E3E3E3"/>
<path d="M297.2 0.700012H275.6V22.5H297.2V0.700012Z" fill="#E3E3E3"/>
<path d="M275.6 99.7L297.2 118.7V25H275.6V99.7Z" fill="#E3E3E3"/>
<path d="M447.1 30.2L469.2 50.1H447.1V30.2ZM425.4 0.700012V121.1H447.1V71.8H493.3L547.9 121.1H580.5L447.1 0.799988H425.4V0.700012Z" fill="#E3E3E3"/>
<path d="M611.7 63.5L651.1 99.4H597.9C589.6 99.4 582.9 92.7 582.9 84.4V0.600006H561.3V84.4C561.3 89.3 562.3 94.1 564.2 98.7C566 103.1 568.7 107 572 110.3C575.4 113.7 579.3 116.3 583.6 118.1C588.1 120 592.9 121 597.9 121H707.5L643.9 63.5H611.7Z" fill="#E3E3E3"/>
<path d="M101.7 37.4V84.4C101.7 92.7 95 99.4 86.7 99.4H21.7V22.4H86.7C95 22.5 101.7 29.2 101.7 37.4ZM123.4 37.4C123.4 32.5 122.4 27.7 120.5 23.1C118.7 18.7 116 14.8 112.7 11.5C109.3 8.1 105.4 5.50001 101.1 3.70001C96.6 1.80001 91.8 0.799988 86.8 0.799988L0.200012 0.700012V121H86.8C91.7 121 96.5 120 101.1 118.1C105.5 116.3 109.4 113.6 112.7 110.3C116.1 106.9 118.7 103 120.5 98.7C122.4 94.3 123.3 89.3 123.4 84.4V84.2V84.4V37.4Z" fill="#E3E3E3"/>
<path d="M299.8 0.799988V22.5H350.3V121.1H372V22.5H423V0.799988H299.8Z" fill="#E3E3E3"/>
<path d="M206.4 153.1L228.6 173.1H206.4V153.1ZM184.8 123.7V244H206.4V194.8H252.7L307.2 244H339.8L206.4 123.7H184.8Z" fill="#E3E3E3"/>
<path d="M527.9 123.8V244.1H549.6V241.7V241.8V193.7H627.1V244.1H648.8V123.9H627.1V172H549.6V123.9V123.8H527.9Z" fill="#E3E3E3"/>
<path d="M81.4 126.6C77 128.4 73.1 131.1 69.8 134.4C66.4 137.8 63.8 141.7 62 146C60.1 150.5 59.1 155.3 59.1 160.3H59.2H59.1V207.3C59.1 212.2 60.1 217 62 221.6C63.8 226 66.5 229.9 69.8 233.2C73.2 236.6 77.1 239.2 81.4 241C85.9 242.9 90.7 243.9 95.7 243.9H182.3V222.3H95.7C87.4 222.3 80.7 215.6 80.7 207.3V194.7H182.3V173.1H80.7V160.4H80.6C80.6 152.1 87.3 145.4 95.6 145.4H182.2V123.8H95.6C90.7 123.7 85.9 124.7 81.4 126.6Z" fill="#E3E3E3"/>
<path d="M366.2 172.8C365.9 172.8 300.1 173 300.1 173V145.3C300.1 145.3 366 145.3 366.2 145.3C373.8 145.3 379.9 151.4 379.9 159C380 166.7 373.8 172.8 366.2 172.8ZM401.5 159.2C401.5 140.2 386.6 124.8 367.9 123.9C366.9 123.8 278.5 123.8 278.5 123.8V185.8L300.1 205.2V194.6L344.3 194.5L375.3 222.3H375.2L399.1 243.9H431.7L375.4 193.2C390.4 189.2 401.5 175.5 401.5 159.2Z" fill="#E3E3E3"/>
<path d="M402.3 123.9V145.5H452.9V244.1H474.5V145.5H525.5V123.9H402.3Z" fill="#E3E3E3"/>
<path d="M116.9 275.5C116.9 270.6 119.6 267.2 124.6 267.2C129.6 267.2 132.3 270.6 132.3 275.5C132.3 280.4 129.6 283.8 124.6 283.8C119.6 283.8 116.9 280.3 116.9 275.5ZM128.3 275.5C128.3 272.1 127.3 271 124.6 271C121.9 271 120.9 272.1 120.9 275.5C120.9 278.9 121.9 280.1 124.6 280.1C127.3 280.1 128.3 278.9 128.3 275.5Z" fill="#E3E3E3"/>
<path d="M149.3 271.2H143.8V283.4H139.8V271.2H134.3V267.5H149.4V271.2H149.3Z" fill="#E3E3E3"/>
<path d="M161.6 275.5L167.1 283.5H162.3L158.3 277.4H155.9V283.5H151.9V267.6H155.9V273.7H158.3L162.3 267.6H167.1L161.6 275.5Z" fill="#E3E3E3"/>
<path d="M186 275.5C186 280 183.9 283.8 179.1 283.8C177.2 283.8 175.6 283.1 174.6 281.5V288.4H170.6V267.5H174.6V269.4C175.7 267.9 177.2 267.2 179.1 267.2C183.9 267.2 186 270.9 186 275.5ZM181.9 275.5C181.9 272.3 180.8 271 178.2 271C175.6 271 174.5 272.4 174.5 275.5C174.5 278.7 175.6 280.1 178.2 280.1C180.8 280.1 181.9 278.7 181.9 275.5Z" fill="#E3E3E3"/>
<path d="M201.8 277.9C201.8 280.9 200.3 283.4 196 283.4H188.6V267.5H192.6V272.4H196C200.3 272.4 201.8 275 201.8 277.9ZM197.8 277.9C197.8 276.4 197.2 276.1 195.5 276.1H192.6V279.7H195.5C197.2 279.8 197.8 279.4 197.8 277.9ZM208 267.5V283.4H204V267.5H208Z" fill="#E3E3E3"/>
<path d="M224.5 279.1C224.5 281.5 223.2 283.4 219.1 283.4H211.6V267.5H219.1C222.8 267.5 224.1 269.3 224.1 271.7C224.1 273.7 223 274.8 220.7 274.9V275.4C223.2 275.6 224.5 276.8 224.5 279.1ZM215.6 273.8H218.6C219.7 273.8 220.1 273.5 220.1 272.5C220.1 271.6 219.8 271.2 218.6 271.2H215.6V273.8ZM220.5 278.2C220.5 277.1 220.1 276.7 218.7 276.7H215.6V279.7H218.7C220.1 279.8 220.5 279.3 220.5 278.2Z" fill="#E3E3E3"/>
<path d="M243 279.6V283.5H237V282C236.2 283.1 235 283.9 232.7 283.9C228.9 283.9 227.2 281.2 227.2 278.3C227.2 275.5 229 272.7 232.7 272.7C235 272.7 236.2 273.4 237 274.6V271.2H229V267.6H241V279.7H243V279.6ZM237 278.2C237 277 236.2 276 234.1 276C232 276 231.2 277 231.2 278.2C231.2 279.4 232 280.4 234.1 280.4C236.2 280.4 237 279.4 237 278.2Z" fill="#E3E3E3"/>
<path d="M259.6 267.5V283.4H255.6V278.2H250V283.4H246V277H250.6V276.5C247.5 276.2 246 275.5 246 272.3C246 269 247.5 267.5 253.4 267.5H259.6ZM255.6 271.2H252.5C250.6 271.2 250 271.5 250 272.9C250 274.1 250.6 274.5 252.5 274.5H255.6V271.2Z" fill="#E3E3E3"/>
<path d="M289.4 267.5V283.4H285.4V274.5H284.9L278.4 283.4H274.4V267.5H278.4V276.4H278.9L285.4 267.5H289.4Z" fill="#E3E3E3"/>
<path d="M299.2 267.2C303.8 267.2 306.2 270.3 306.2 274H302.2C302.1 272.2 301.6 270.9 299.3 270.9C296.6 270.9 295.9 272.4 295.9 275.4C295.9 278.4 296.5 280 299.3 280C301.6 280 302.1 278.7 302.2 276.9H306.2C306.2 280.6 303.8 283.7 299.2 283.7C294.2 283.7 291.9 280.3 291.9 275.4C291.9 270.5 294.3 267.2 299.2 267.2Z" fill="#E3E3E3"/>
<path d="M319.1 275.5L324.6 283.5H319.8L315.8 277.4H313.4V283.5H309.4V267.6H313.4V273.7H315.8L319.8 267.6H324.6L319.1 275.5Z" fill="#E3E3E3"/>
<path d="M341.9 267.5V288.4H328.9V284.7H337.9V280.5C337 281.5 335.5 282.2 333.6 282.2C328.7 282.2 326.8 279.3 326.8 275.1V267.5H330.8V274.9C330.8 277.4 331.9 278.5 334.3 278.5C336.7 278.5 337.8 277.4 337.8 274.9V267.5H341.9V267.5Z" fill="#E3E3E3"/>
<path d="M352.2 267.2C356.8 267.2 359.2 270.3 359.2 274H355.2C355.1 272.2 354.6 270.9 352.3 270.9C349.6 270.9 348.9 272.4 348.9 275.4C348.9 278.4 349.5 280 352.3 280C354.6 280 355.1 278.7 355.2 276.9H359.2C359.2 280.6 356.8 283.7 352.2 283.7C347.2 283.7 344.9 280.3 344.9 275.4C344.9 270.5 347.3 267.2 352.2 267.2Z" fill="#E3E3E3"/>
<path d="M368.9 267.2C373.5 267.2 375.9 270.3 375.9 274H371.9C371.8 272.2 371.3 270.9 369 270.9C366.3 270.9 365.6 272.4 365.6 275.4C365.6 278.4 366.3 280 369 280C371.3 280 371.8 278.7 371.9 276.9H375.9C375.9 280.6 373.5 283.7 368.9 283.7C363.9 283.7 361.6 280.3 361.6 275.4C361.6 270.5 363.9 267.2 368.9 267.2Z" fill="#E3E3E3"/>
<path d="M392.4 271.2H386.9V283.4H382.9V271.2H377.4V267.5H392.5V271.2H392.4Z" fill="#E3E3E3"/>
<path d="M407.8 279.1C407.8 281.5 406.5 283.4 402.4 283.4H394.9V267.5H402.4C406.1 267.5 407.4 269.3 407.4 271.7C407.4 273.7 406.3 274.8 404 274.9V275.4C406.6 275.6 407.8 276.8 407.8 279.1ZM398.9 273.8H401.9C403 273.8 403.4 273.5 403.4 272.5C403.4 271.6 403.1 271.2 401.9 271.2H398.9V273.8ZM403.8 278.2C403.8 277.1 403.4 276.7 402 276.7H398.9V279.7H402C403.4 279.8 403.8 279.3 403.8 278.2Z" fill="#E3E3E3"/>
<path d="M410 275.5C410 270.6 412.7 267.2 417.7 267.2C422.7 267.2 425.4 270.6 425.4 275.5C425.4 280.4 422.7 283.8 417.7 283.8C412.7 283.8 410 280.3 410 275.5ZM421.4 275.5C421.4 272.1 420.4 271 417.7 271C415 271 414 272.1 414 275.5C414 278.9 415 280.1 417.7 280.1C420.5 280.1 421.4 278.9 421.4 275.5Z" fill="#E3E3E3"/>
<path d="M455.3 276C455.3 280.5 452.9 283.8 448 283.8C441.8 283.8 440 279.7 440 275V270.4C440 266.6 441.3 262.5 448.3 262.5C450.1 262.5 451.3 262.5 453.1 261.9V265.6C451.7 266.3 450.2 266.3 448.3 266.3C444.2 266.3 444 267.9 444 270.4C444.8 269.5 446.3 268.5 448.4 268.5C452.9 268.3 455.3 271.5 455.3 276ZM451.2 276C451.2 273.3 450.2 272 447.6 272C444.9 272 444 273.3 444 275.9C444 278.3 445 280.1 447.6 280.1C450.3 280.1 451.2 278.7 451.2 276Z" fill="#E3E3E3"/>
<path d="M473.5 267.5V288.4H460.5V284.7H469.5V280.5C468.6 281.5 467.1 282.2 465.2 282.2C460.3 282.2 458.4 279.3 458.4 275.1V267.5H462.4V274.9C462.4 277.4 463.5 278.5 465.9 278.5C468.3 278.5 469.4 277.4 469.4 274.9V267.5H473.5V267.5Z" fill="#E3E3E3"/>
<path d="M497 279.8V288.5H493V283.5H481.5V288.5H477.5V279.8H479.4C482.1 276.3 482.1 274.6 482.1 267.7V267.6H494.2V279.8H497ZM490.2 279.8V271.3H486.1C486.1 275.4 485.7 277.1 483.8 279.8H490.2Z" fill="#E3E3E3"/>
<path d="M515.1 267.5V288.4H502.1V284.7H511.1V280.5C510.2 281.5 508.7 282.2 506.8 282.2C501.9 282.2 500 279.3 500 275.1V267.5H504V274.9C504 277.4 505.1 278.5 507.5 278.5C509.9 278.5 511 277.4 511 274.9V267.5H515.1V267.5Z" fill="#E3E3E3"/>
<path d="M545 288.4H541V283.4H518.7V267.5H522.7V279.7H527.7V267.5H531.7V279.7H536.7V267.5H540.7V279.7H545V288.4Z" fill="#E3E3E3"/>
<path d="M561.3 277H551.5C551.8 278.9 552.7 280.1 555.8 280.1C556.7 280.1 558.1 280.1 560.3 279.6V283.3C557.9 283.9 556.7 283.9 555.5 283.9C548.4 283.9 547.3 278.9 547.3 275.6C547.3 270.9 549.2 267.3 554.4 267.3C559.4 267.3 561.3 270.6 561.3 275.3V277ZM551.4 274H557.3C557.2 271.8 556.3 270.9 554.3 270.9C552.4 270.9 551.5 272 551.4 274Z" fill="#E3E3E3"/>
<path d="M575.8 271.2H568.3V283.4H564.3V267.5H575.8V271.2Z" fill="#E3E3E3"/>
<path d="M577.3 275.5C577.3 270.6 580 267.2 585 267.2C590 267.2 592.7 270.6 592.7 275.5C592.7 280.4 590 283.8 585 283.8C580 283.8 577.3 280.3 577.3 275.5ZM588.7 275.5C588.7 272.1 587.7 271 585 271C582.3 271 581.3 272.1 581.3 275.5C581.3 278.9 582.3 280.1 585 280.1C587.8 280.1 588.7 278.9 588.7 275.5Z" fill="#E3E3E3"/>
</svg>
