<svg width="132" height="56" viewBox="0 0 132 56" fill="none" xmlns="http://www.w3.org/2000/svg">
<path d="M10.8 8.4C-2.1 7.5 0.699955 21.7 0.499955 30.6H5.69991V18.8C5.29991 15 7.19998 12.2 11.4 12.9L12.5999 8.5C12.1999 8.4 11.3 8.4 10.8 8.4Z" fill="#E3E3E3"/>
<path d="M30.8001 18.8C30.8001 14.1 28.7001 8.4 21.9001 8.4C4.20007 10.8 11.2 37.7 29.6 29.3L28.8001 25.6C24.9001 27.2 16.9001 27.5 16.8001 21H30.6C30.7 20.5 30.8001 19.8 30.8001 18.8ZM16.8001 17.3C17.1001 10.6 26.2001 10.4 25.8001 17.3H16.8001Z" fill="#E3E3E3"/>
<path d="M112.1 8.4C99.3 7.5 101.9 21.7 101.8 30.6H107V18.8C106.6 15 108.5 12.2 112.7 12.9L113.9 8.5C113.4 8.4 112.6 8.4 112.1 8.4Z" fill="#E3E3E3"/>
<path d="M132 18.8C132 14.1 129.8 8.4 123.1 8.4C105.4 10.8 112.4 37.7 130.8 29.3L130 25.6C126.1 27.2 118 27.5 118 21H131.8C131.9 20.5 132 19.8 132 18.8ZM118.1 17.3C118.4 10.6 127.6 10.4 127.1 17.3H118.1Z" fill="#E3E3E3"/>
<path d="M56.8 13C44.8 8.6 55.1 1.5 61.7 6L63 1.7C50.3 -5.2 37.3 11.2 53.8 17.3C66.1 22.6 54 29.7 46.8 24.3L45.6 28.8C58.8 36.6 73.7 20 56.8 13Z" fill="#E3E3E3"/>
<path d="M75 26.2C70.4 26.5 73.0001 15.5 72.3001 12.8H75.9001L77 8.8H72.3001V2.8L67.2 5.4C68.4 13.1 62.4 34.9 77.1 30.1L77 26C76.4 26.1 76 26.2 75 26.2Z" fill="#E3E3E3"/>
<path d="M89.0001 8.4C75.1001 7.7 74.8 31.2 88.6 30.7C101.5 31.8 103.4 8.1 89.0001 8.4ZM88.8001 26.7C82.3001 27 81.7001 12.2 88.8001 12.3C95.9001 12.4 95.0001 27.1 88.8001 26.7Z" fill="#E3E3E3"/>
<path d="M37.9999 15.9C42.2999 16.1 42.1999 8.9 37.9999 9C33.8999 8.8 33.7999 16 37.9999 15.9Z" fill="#E3E3E3"/>
<path d="M38.1 23.3C33.9 23.1 33.9 30.3 38.1 30.2C42.3 30.4 42.2 23.1 38.1 23.3Z" fill="#E3E3E3"/>
<path d="M54.0999 46.3C54.4999 41.4 48.1999 41.3 48.4999 46.2C48.1999 51.1 54.2999 51.1 54.0999 46.3ZM46.0999 46.4C45.5999 41.3 51.6999 38.5 54.0999 42.5V35.9H56.4999V51.6H54.0999V49.8C51.6999 53.7 45.6999 51.7 46.0999 46.4Z" fill="#E3E3E3"/>
<path d="M58.5 40.9H60.9V51.7H58.5V40.9ZM58.2 37.7C58.2 35.8 61.1 35.8 61.1 37.7C61.1 39.5 58.2 39.5 58.2 37.7Z" fill="#E3E3E3"/>
<path d="M70.6999 46C71.0999 41.5 64.7999 41.5 65.0999 45.9C64.7999 50.3 70.8999 50.4 70.6999 46ZM62.6999 52H65.0999C65.5999 54.7 71.0999 54.1 70.5999 50.8V49.2C68.2999 53.1 62.1999 50.8 62.5999 45.9C62.1999 41.2 68.3999 38.6 70.5999 42.5V40.9H73V50.9C73.7 56.8 62.9999 57.1 62.6999 52Z" fill="#E3E3E3"/>
<path d="M75.1 40.9H77.5V51.7H75.1V40.9ZM74.8 37.7C74.8 35.8 77.7 35.8 77.7 37.7C77.7 39.5 74.8 39.5 74.8 37.7Z" fill="#E3E3E3"/>
<path d="M80.2 48.6V42.7H78.8V40.8H80.2V38.4H82.6V40.8H84.9V42.7H82.6C83 44.3 81.2 51.3 85 49.5V51.5C82.8 52.4 80 51.4 80.2 48.6Z" fill="#E3E3E3"/>
<path d="M92.7 47.9V46.8C84.2 46.1 90.9 53.9 92.7 47.9ZM86.1 48.7C86 45.7 89.8 45.1 92.7 45.3C93.5 42.4 89.2001 41.5 88.8001 44.3H86.5C86.7 39.5 95.4 39.3 95.1 44.7V51.8H92.7V50.5C91.3 52.7 85.9 52.4 86.1 48.7Z" fill="#E3E3E3"/>
<path d="M99.5 35.9H97.1V51.6H99.5V35.9Z" fill="#E3E3E3"/>
<path d="M113 47.9V46.8C104.4 46.1 111.1 53.9 113 47.9ZM106.4 48.7C106.3 45.7 110.1 45.1 113 45.3C113.8 42.4 109.5 41.5 109.1 44.3H106.8C107 39.5 115.7 39.3 115.4 44.7V51.8H113V50.5C111.6 52.7 106.2 52.4 106.4 48.7Z" fill="#E3E3E3"/>
<path d="M117.3 40.9H119.7V42.9C120.4 41.5 121.3 40.7 123.1 40.7V43C118.3 42.4 120 48.9 119.7 51.6H117.3V40.9Z" fill="#E3E3E3"/>
<path d="M125.9 48.6V42.7H124.5V40.8H125.9V38.4H128.3V40.8H130.6V42.7H128.3C128.7 44.3 126.9 51.3 130.7 49.5V51.5C128.5 52.4 125.7 51.4 125.9 48.6Z" fill="#E3E3E3"/>
</svg>
