<svg width="97" height="109" viewBox="0 0 97 109" fill="none" xmlns="http://www.w3.org/2000/svg">
<path d="M1.3 50.8C4.3 50.1 11.5 51 6.9 54.7V54.8C8.1 55.1 8.6 55.8 8.6 56.8C9 59.6 3.7 59.5 1.3 59.2V50.8V50.8ZM4.7 54.1C7 53.8 5.2 52.1 3.8 52.7V54.1H4.7ZM3.8 57.3C6.8 57.9 6.7 55.2 3.8 55.7V57.3Z" fill="#E3E3E3"/>
<path d="M15 55.9L15.1 54.6H15C14.6 55.6 12.2 58.4 11.6 59.2H10V50.8H12.6C12.6 51.7 12.6 54.7 12.5 55.5H12.6C13 54.6 15.4 51.6 16 50.8H17.6V59.2H15V55.9Z" fill="#E3E3E3"/>
<path d="M24.2 56.1H21.9V59.2H19.3V50.8H21.9V53.8H24.2V50.8H26.8V59.2H24.2V56.1Z" fill="#E3E3E3"/>
<path d="M29.5 55.8V54.1C33.8 54.2 30.7 51.7 28.6 53.2L28.1 51.3C30.7 49.4 37.1 51.5 33 54.7V54.8C37.8 57.3 31.2 61.1 28.1 58.7L28.6 56.7C30.9 58.4 34.5 55.7 29.5 55.8Z" fill="#E3E3E3"/>
<path d="M36.1 51.3C44.3 48.4 42.4 53.5 43.1 59.2H41L40.6 58H40.5C35.6 62.8 32.7 52.9 40.3 54C40.8 51.9 37.7 52.7 36.7 53.1L36.1 51.3ZM40.4 56.5V55.5C36.8 54.9 38.4 58.9 40.4 56.5Z" fill="#E3E3E3"/>
<path d="M44.6 50.8C47.6 50.1 54.8 51 50.2 54.7V54.8C51.4 55.1 51.9 55.8 51.9 56.8C52.3 59.6 47 59.5 44.6 59.2V50.8ZM48.1 54.1C50.4 53.8 48.6 52.1 47.2 52.7V54.1H48.1ZM47.1 57.3C50.1 57.9 50 55.2 47.1 55.7V57.3Z" fill="#E3E3E3"/>
<path d="M56.7 50.6C62.2 50.2 62 59.9 56.7 59.5C51.1 59.8 51.3 50.1 56.7 50.6ZM56.7 57.3C58.6 57.7 58.7 52.4 56.7 52.7C54.8 52.3 54.7 57.5 56.7 57.3Z" fill="#E3E3E3"/>
<path d="M71 61H69.1L68.8 59.2H63.4L63.1 61H61.2V56.9H62.2C62.6 56.4 63.4 54.7 63.4 50.8H69.6V56.9H70.8V61H71ZM67.2 57.1V53H65.8C65.7 54.5 65.3 56.3 64.9 57.1H67.2Z" fill="#E3E3E3"/>
<path d="M8.4 76.5H7.5L7.3 74.5H1.3V66.6H2.6V73.4H6V66.6H7.3V73.4H8.4V76.5Z" fill="#E3E3E3"/>
<path d="M15.7 73.9C11.3 77.2 7.6 71 10.4 67.5C12.7 65 17.1 67.1 15.9 70.7H10.8C10.4 73.3 13.4 74.5 15.2 73L15.7 73.9ZM13 67.5C11.6 67.5 11 68.2 10.8 69.7H14.7C14.7 68.3 14.3 67.5 13 67.5Z" fill="#E3E3E3"/>
<path d="M22.7 71H19.1V74.5H17.8V66.6H19.1V69.9H22.7V66.6H24V74.5H22.7V71Z" fill="#E3E3E3"/>
<path d="M31.5 67.7H29V74.5H27.7V67.7H25.2V66.6H31.4V67.7H31.5Z" fill="#E3E3E3"/>
<path d="M33 66.6H33.9L34.1 67.5H34.2C40.8 61.9 41.8 77.4 34.3 74.3V77.6H33V66.6ZM36.1 67.5C33.4 67.3 34.3 71.6 34.2 73.1C37.9 75.8 40.2 67.9 36.1 67.5Z" fill="#E3E3E3"/>
<path d="M6.8 89.3C-0.7 93.7 -1.1 78.5 6.6 82.2L6.2 83.3C0.800001 80.1 1 91.7 6.3 88.4L6.8 89.3Z" fill="#E3E3E3"/>
<path d="M7.8 85.9C7.2 80.4 15.3 80.6 14.7 85.9C15.3 91.4 7.2 91.2 7.8 85.9ZM9.1 85.9C9.1 87.3 9.6 89 11.3 88.9C13.5 89.2 14 85.5 13 83.7C11.5 81.8 8.9 83 9.1 85.9Z" fill="#E3E3E3"/>
<path d="M16.7 81.9C19.5 81.1 25.1 82.6 20.9 85.6V85.7C22.9 85.8 23.1 88.5 21.7 89.4C20.6 90.1 18.2 90 16.7 89.8V81.9ZM19.5 85.2C22.8 84.4 20.3 82.2 18 82.9V85.2H19.5ZM17.9 88.8C22.4 89.6 22.4 85.5 17.9 86.3V88.8Z" fill="#E3E3E3"/>
<path d="M24.5 81.9H25.4L25.6 82.8H25.7C32.3 77.2 33.3 92.7 25.8 89.6V92.9H24.5V81.9ZM27.7 82.8C25 82.6 25.9 86.9 25.8 88.4C29.4 91.1 31.7 83.2 27.7 82.8Z" fill="#E3E3E3"/>
<path d="M38.8 89.2C34.4 92.5 30.7 86.3 33.5 82.8C35.8 80.3 40.2 82.4 39 86H33.9C33.6 88.6 36.5 89.8 38.3 88.3L38.8 89.2ZM36.1 82.8C34.7 82.8 34.1 83.5 33.9 85H37.8C37.8 83.6 37.4 82.9 36.1 82.8Z" fill="#E3E3E3"/>
<path d="M47.5 85.1L47.6 83.6H47.5C47.2 84.5 45.5 87.1 45 87.9H44.6C44.1 87.1 42.3 84.5 42.1 83.6H42C42.2 84.6 42.1 88.7 42.1 89.8H41V81.9H42.2C42.6 82.6 44.6 85.7 44.9 86.4C45.2 85.8 47.1 82.6 47.4 81.9H48.7V89.8H47.5V85.1Z" fill="#E3E3E3"/>
<path d="M56.9 89.2C52.5 92.5 48.8 86.3 51.6 82.8C53.9 80.3 58.3 82.4 57.1 86H52C51.6 88.6 54.6 89.8 56.4 88.3L56.9 89.2ZM54.1 82.8C52.7 82.8 52.1 83.5 51.9 85H55.8C55.9 83.6 55.5 82.9 54.1 82.8Z" fill="#E3E3E3"/>
<path d="M63.9 86.3H60.3V89.8H59V81.9H60.3V85.2H63.9V81.9H65.2V89.8H63.9V86.3V86.3Z" fill="#E3E3E3"/>
<path d="M72.3 86.3H68.7V89.8H67.4V81.9H68.7V85.2H72.3V81.9H73.6V89.8H72.3V86.3Z" fill="#E3E3E3"/>
<path d="M75.5 85.9C74.9 80.4 83 80.6 82.4 85.9C83 91.4 74.9 91.2 75.5 85.9ZM76.8 85.9C76.8 87.3 77.3 89 78.9 88.9C81.1 89.2 81.6 85.5 80.6 83.7C79.1 81.8 76.5 83 76.8 85.9Z" fill="#E3E3E3"/>
<path d="M88.9 83H85.5V89.8H84.2V81.9H88.8V83H88.9Z" fill="#E3E3E3"/>
<path d="M89.1 85.9C88.5 80.4 96.6 80.6 96 85.9C96.6 91.4 88.5 91.2 89.1 85.9ZM90.5 85.9C90.5 87.3 91 89 92.6 88.9C94.8 89.2 95.3 85.5 94.3 83.7C92.8 81.8 90.2 83 90.5 85.9Z" fill="#E3E3E3"/>
<path d="M6.3 100.5V99.5C6 100.2 2.6 104.5 2.1 105.2H1.4V97.3H2.7C2.7 98 2.7 102.5 2.7 103.1H2.8C3.1 102.5 6.5 98 7 97.3H7.7V105.2H6.4V100.5H6.3Z" fill="#E3E3E3"/>
<path d="M15.3 104.6C7.8 109 7.4 93.8 15.1 97.5L14.7 98.6C9.3 95.4 9.5 107 14.8 103.7L15.3 104.6Z" fill="#E3E3E3"/>
<path d="M18.9 101.6H18.2V105.2H17V97.3H18.3V100.9L19 100.7L21.5 97.3H22.9C22.5 97.8 20.3 100.8 19.8 101C20.5 101.2 22.8 104.6 23.3 105.2H21.7L18.9 101.6Z" fill="#E3E3E3"/>
<path d="M27.3 102.4L27.7 103.9H27.8C28 102.9 29.4 98.3 29.7 97.3H31C29.7 99.5 28.7 109.6 25 108.3L25.2 107.2C26.4 107.5 26.8 106.4 27.1 105.2L23.9 97.3H25.4L27.3 102.4Z" fill="#E3E3E3"/>
<path d="M37.6 104.6C30.1 109 29.7 93.8 37.4 97.5L37 98.6C31.6 95.4 31.8 107 37.1 103.7L37.6 104.6Z" fill="#E3E3E3"/>
<path d="M44.5 104.6C37 109 36.6 93.8 44.3 97.5L43.9 98.6C38.5 95.4 38.7 107 44 103.7L44.5 104.6Z" fill="#E3E3E3"/>
<path d="M51.7 98.3H49.2V105.1H48V98.3H45.5V97.2H51.7V98.3Z" fill="#E3E3E3"/>
<path d="M53.1 97.2C55.9 96.4 61.5 97.9 57.3 100.9V101C59.3 101.1 59.5 103.8 58.1 104.7C57 105.4 54.6 105.3 53.1 105.1V97.2ZM55.9 100.6C59.2 99.8 56.7 97.6 54.4 98.3V100.6H55.9ZM54.4 104.1C58.9 104.9 58.9 100.8 54.4 101.6V104.1Z" fill="#E3E3E3"/>
<path d="M61 97.8C67.9 94.7 66.2 100.8 66.7 105.2H65.8L65.5 104.1H65.4C60.2 108.6 58.1 99.2 65.3 100.7C66 97.9 63.2 97.9 61.4 98.9L61 97.8ZM63.2 104.2C64.7 104.3 65.5 103 65.3 101.6C63.2 100.9 59.8 103.2 63.2 104.2Z" fill="#E3E3E3"/>
<path d="M39.8 2.7C38.9 2.9 39.8 1.7 39.3 1.6C38.9 2.3 36 0.8 35.7 1.6C35.1 2.2 35.3 1.9 33.5 2C32.2 2 31.5 4 31.2 4C29 3 29.3 4.5 27.9 5.4C25.9 6.6 26.1 10.6 26.1 10.6H27.8C28.5 6.9 30.4 10.1 32.1 7.7C32.4 7.2 33 7.5 33.5 7.2C34.6 5.6 37.2 7.7 37.4 5.7C37.4 5.7 38.3 5.6 38.7 5.3C39.1 5 38.6 4.6 39.2 4.2C40.1 3.4 39.8 2.7 39.8 2.7Z" fill="#E3E3E3"/>
<path d="M14.1 10.5C14.2 7.9 17.8 9.9 18.8 8.3C19.5 7.3 19.7 7.6 20.8 7.3C22.5 6.9 22.4 5.8 22.8 5.3C24.4 4.7 23.9 3.8 24.7 2.3C25.6 0.999998 23.6 1.5 23.3 0.999999C22.5 0.799999 22 1.4 21 1.4C20.3 1.6 20 2.4 19.1 2.3C18.7 2.2 18.4 2.2 17.8 3.1C15.9 4.9 10.3 6.4 12.1 10.6H14.1V10.5Z" fill="#E3E3E3"/>
<path d="M28.4 13.7H28.8V12C28.2 12 25.9 12 25.3 12V13.6H25.7V19.8L20.2 16.5L14.5 20V13.7H14.9V12C14.3 12 12 12 11.4 12V13.6H11.8V21.5L1.3 27.7V43.8H39V27.8L28.4 21.4V13.7Z" fill="#E3E3E3"/>
</svg>
